<svg xmlns="http://www.w3.org/2000/svg" width="55.105" height="55.105" viewBox="0 0 55.105 55.105">
  <g id="Group_8" data-name="Group 8" transform="translate(-776.029 -1154.873)">
    <g id="Component_21_1" data-name="Component 21 – 1" transform="translate(776.029 1154.873)">
      <g id="Path_3" data-name="Path 3" fill="#fff">
        <path d="M 27.55242919921875 54.6048583984375 C 23.90015983581543 54.6048583984375 20.35739898681641 53.88966751098633 17.02256011962891 52.47914886474609 C 13.80123901367188 51.11664962768555 10.90808963775635 49.16600036621094 8.423479080200195 46.68138885498047 C 5.938868999481201 44.19677734375 3.988219261169434 41.30363082885742 2.625709295272827 38.08229827880859 C 1.215189218521118 34.74747085571289 0.4999991953372955 31.20471000671387 0.4999991953372955 27.55242919921875 C 0.4999991953372955 23.90015983581543 1.215189218521118 20.35739898681641 2.625709295272827 17.02256011962891 C 3.988219261169434 13.80123901367188 5.938868999481201 10.90808963775635 8.423479080200195 8.423479080200195 C 10.90808963775635 5.938868999481201 13.80123901367188 3.988219261169434 17.02256011962891 2.625709295272827 C 20.35739898681641 1.215189218521118 23.90015983581543 0.4999991953372955 27.55242919921875 0.4999991953372955 C 31.20471000671387 0.4999991953372955 34.74747085571289 1.215189218521118 38.08229827880859 2.625709295272827 C 41.30363082885742 3.988219261169434 44.19677734375 5.938868999481201 46.68138885498047 8.423479080200195 C 49.16600036621094 10.90808963775635 51.11664962768555 13.80123901367188 52.47914886474609 17.02256011962891 C 53.88966751098633 20.35739898681641 54.6048583984375 23.90015983581543 54.6048583984375 27.55242919921875 C 54.6048583984375 31.20471000671387 53.88966751098633 34.74747085571289 52.47914886474609 38.08229827880859 C 51.11664962768555 41.30363082885742 49.16600036621094 44.19677734375 46.68138885498047 46.68138885498047 C 44.19677734375 49.16600036621094 41.30363082885742 51.11664962768555 38.08229827880859 52.47914886474609 C 34.74747085571289 53.88966751098633 31.20471000671387 54.6048583984375 27.55242919921875 54.6048583984375 Z" stroke="none"/>
        <path d="M 27.55242919921875 1 C 23.96743011474609 1 20.49020004272461 1.701900482177734 17.21733093261719 3.086208343505859 C 14.05561065673828 4.423507690429688 11.21587753295898 6.338169097900391 8.777030944824219 8.777030944824219 C 6.338169097900391 11.21587753295898 4.423507690429688 14.05561065673828 3.086208343505859 17.21733093261719 C 1.701900482177734 20.49020004272461 1 23.96743011474609 1 27.55242919921875 C 1 31.13741874694824 1.701900482177734 34.61464691162109 3.086208343505859 37.88751983642578 C 4.423507690429688 41.04924774169922 6.338169097900391 43.88897705078125 8.777030944824219 46.32782745361328 C 11.21587753295898 48.76667785644531 14.05561065673828 50.68135070800781 17.21733093261719 52.01865005493164 C 20.49020004272461 53.40295791625977 23.96743011474609 54.1048583984375 27.55242919921875 54.1048583984375 C 31.13741874694824 54.1048583984375 34.61464691162109 53.40295791625977 37.88751983642578 52.01865005493164 C 41.04924774169922 50.68135070800781 43.88897705078125 48.76667785644531 46.32782745361328 46.32782745361328 C 48.76667785644531 43.88897705078125 50.68135070800781 41.04924774169922 52.01865005493164 37.88751983642578 C 53.40295791625977 34.61464691162109 54.1048583984375 31.13741874694824 54.1048583984375 27.55242919921875 C 54.1048583984375 23.96743011474609 53.40295791625977 20.49020004272461 52.01865005493164 17.21733093261719 C 50.68135070800781 14.05561065673828 48.76667785644531 11.21587753295898 46.32782745361328 8.777030944824219 C 43.88897705078125 6.338169097900391 41.04924774169922 4.423507690429688 37.88751983642578 3.086208343505859 C 34.61464691162109 1.701900482177734 31.13741874694824 1 27.55242919921875 1 M 27.55242919921875 0 C 42.76921081542969 0 55.1048583984375 12.33563995361328 55.1048583984375 27.55242919921875 C 55.1048583984375 42.76921081542969 42.76921081542969 55.1048583984375 27.55242919921875 55.1048583984375 C 12.33563995361328 55.1048583984375 0 42.76921081542969 0 27.55242919921875 C 0 12.33563995361328 12.33563995361328 0 27.55242919921875 0 Z" stroke="none" fill="#264653"/>
      </g>
    </g>
    <path id="Icon_map-police" data-name="Icon map-police" d="M20.578,14.792c0,2.426-2.008,2.426-3.09,2.426H16.139V12.632h1.7c.948,0,2.744,0,2.744,2.16ZM30.943,12.37a15.286,15.286,0,0,1,2.177-6.81L28.282.72a8.707,8.707,0,0,1-5.241,2.174A9.02,9.02,0,0,1,17.91,1.861a9.654,9.654,0,0,1-5.142,1.032A9.318,9.318,0,0,1,7.78.92L2.928,5.759A15.005,15.005,0,0,1,4.917,12.37,11.936,11.936,0,0,1,4,16.775c-.355,1.045-.624,1.953-.806,2.71a13.586,13.586,0,0,0-.31,1.822,8.91,8.91,0,0,0,1.694,5.436,19.848,19.848,0,0,0,4.46,3.9,28.888,28.888,0,0,0,5.239,2.218l1.017.472c.32.154.662.3,1.02.466a4.292,4.292,0,0,1,1.6,1.481A4.658,4.658,0,0,1,19.549,33.8q.663-.284,1.313-.6c.353-.155.616-.271.768-.343q.5-.242,1.02-.443c.42-.165.937-.367,1.556-.59a12.951,12.951,0,0,0,2.618-1.185,22.711,22.711,0,0,0,4.4-3.844,8.785,8.785,0,0,0,1.751-5.491,19.709,19.709,0,0,0-1.164-4.386,11.828,11.828,0,0,1-.873-4.55ZM22.051,19a6.639,6.639,0,0,1-3.552.752H16.235v6.2h-3.4V10.055h4.833c2.246,0,4.125.145,5.43,1.735a4.64,4.64,0,0,1,.952,2.979A4.976,4.976,0,0,1,22.051,19Z" transform="translate(786.119 1165.583)" fill="#264653"/>
  </g>
</svg>
