<svg id="Component_2_1" data-name="Component 2 – 1" xmlns="http://www.w3.org/2000/svg" width="61" height="61" viewBox="0 0 61 61">
  <g id="Ellipse_1" data-name="Ellipse 1" fill="#fff" stroke="#244350" stroke-width="1">
    <circle cx="30.5" cy="30.5" r="30.5" stroke="none"/>
    <circle cx="30.5" cy="30.5" r="30" fill="none"/>
  </g>
  <path id="Icon_ionic-ios-call" data-name="Icon ionic-ios-call" d="M39.429,32.672a30.22,30.22,0,0,0-6.313-4.224c-1.892-.909-2.585-.89-3.924.075-1.115.805-1.836,1.555-3.119,1.274s-3.812-2.192-6.266-4.636-4.365-4.983-4.636-6.266.478-2,1.274-3.119c.965-1.339.993-2.032.075-3.924A29.622,29.622,0,0,0,12.3,5.539c-1.377-1.377-1.686-1.077-2.445-.805A13.911,13.911,0,0,0,7.613,5.923,6.753,6.753,0,0,0,4.925,8.761c-.534,1.152-1.152,3.3,1.995,8.9A49.649,49.649,0,0,0,15.649,29.3h0l.009.009.009.009h0A49.843,49.843,0,0,0,27.31,38.049c5.6,3.147,7.746,2.529,8.9,1.995a6.638,6.638,0,0,0,2.838-2.688,13.911,13.911,0,0,0,1.189-2.239C40.507,34.358,40.816,34.049,39.429,32.672Z" transform="translate(8.021 8.01)" fill="#244350"/>
</svg>
